PathFileType	4	(X/Y/Z)	D:\TRACE\spotREDO_2-26-24\spot_justBody_Motion_3_4-platform.trc
DataRate	CameraRate	NumFrames	NumMarkers	Units	OrigDataRate	OrigDataStartFrame	OrigNumFrames
100.00	100.00	      54	5	mm	100.00	5251	      7000
Frame#	Time	Left_Front			Right_Front			Left_Aft			Right_Aft			Post			
		X1	Y1	Z1	X2	Y2	Z2	X3	Y3	Z3	X4	Y4	Z4	X5	Y5	Z5	

5251	52.500	-679.45624	-28.02046	-581.43427	735.40186	-15.74152	-496.85709	-750.96637	29.20466	636.06921	819.31848	36.93369	639.67194	30.07621	582.13928	-1013.13458	
5252	52.510	-679.51929	-27.79149	-581.40326	735.44415	-15.68894	-496.77423	-751.02112	29.06370	636.12732	819.34717	36.75003	639.85205	30.07785	582.47113	-1013.11578	
5253	52.520	-679.60901	-27.54076	-581.32983	735.51434	-15.57328	-496.74060	-751.03900	28.90916	636.16254	819.31000	36.57268	639.87439	30.15108	582.64008	-1013.06470	
5254	52.530	-679.66571	-27.39344	-581.30701	735.59503	-15.52531	-496.69504	-751.01752	28.72585	636.22211	819.30035	36.32757	639.70538	30.13190	582.71936	-1012.98511	
5255	52.540	-679.77881	-27.30329	-581.23572	735.46643	-15.45504	-496.65576	-751.12573	28.51942	636.27740	819.24561	36.15719	640.02289	30.08295	582.87451	-1012.73865	
5256	52.550	-679.77881	-27.27960	-581.23785	735.24042	-15.14336	-496.85706	-751.36798	28.50822	636.16199	819.21588	35.89833	640.12671	29.87885	583.14551	-1012.44049	
5257	52.560	-679.85577	-27.25656	-581.17456	734.89923	-14.92719	-496.71976	-751.57947	28.36740	636.21582	818.88037	35.84544	640.15747	29.68916	583.61371	-1011.92273	
5258	52.570	-679.95868	-27.21998	-581.16833	734.78259	-14.77100	-496.68268	-751.55060	28.01833	636.36469	818.69543	35.74195	640.20081	29.73204	584.07086	-1011.22864	
5259	52.580	-680.10291	-27.10232	-581.17401	734.40173	-14.59774	-496.76266	-751.78052	27.94740	636.37201	818.41077	35.68985	640.30737	29.31943	584.37347	-1011.19116	
5260	52.590	-680.24084	-26.89513	-581.16809	734.29242	-14.48258	-496.72116	-751.89496	27.75377	636.46051	818.32233	35.60746	640.36108	29.18044	584.54114	-1011.03534	
5261	52.600	-680.32886	-26.81145	-581.11676	734.17780	-14.42465	-496.66019	-752.01086	27.61831	636.48962	818.32251	35.45204	640.31934	28.91938	584.68945	-1010.77277	
5262	52.610	-680.44055	-26.61337	-581.08380	734.11395	-14.32492	-496.60373	-752.06433	27.53195	636.57489	818.32166	35.38681	640.32440	28.76823	584.88849	-1010.64319	
5263	52.620	-680.48859	-26.43661	-581.03937	734.13501	-14.23916	-496.55917	-752.19952	27.39639	636.59467	818.36072	35.30726	640.29120	28.65844	585.13806	-1010.60144	
5264	52.630	-680.59906	-26.24872	-581.00635	734.22577	-14.39490	-496.42892	-752.27625	27.27360	636.62805	818.18018	35.17038	640.31696	28.51339	585.27124	-1010.62079	
5265	52.640	-680.79803	-26.02571	-580.92548	734.08533	-14.36467	-496.41193	-752.41010	27.06916	636.65094	817.93115	35.02562	640.34338	28.42530	585.33142	-1010.64825	
5266	52.650	-680.97943	-25.93495	-580.88104	733.91040	-14.34189	-496.37079	-752.61218	27.00360	636.68988	817.69519	34.79562	640.29114	28.31423	585.44043	-1010.68433	
5267	52.660	-681.16443	-25.86395	-580.83057	733.70508	-14.18043	-496.47528	-752.83563	26.94610	636.69446	817.34283	35.18367	640.31970	28.08563	585.56390	-1010.61188	
5268	52.670	-681.29077	-25.71580	-580.78857	733.58948	-13.93051	-496.48502	-753.06934	27.04709	636.72467	816.99445	34.79478	640.26361	27.83324	585.79230	-1010.51697	
5269	52.680	-681.47101	-25.60843	-580.75012	733.50055	-14.01294	-496.43219	-753.33765	26.81777	636.65253	817.09943	34.24773	640.66132	27.70415	586.01581	-1010.29706	
5270	52.690	-681.65216	-25.56894	-580.72577	733.09607	-13.84249	-496.48386	-753.42981	26.55603	636.65564	816.73181	34.28168	640.38141	27.46984	586.11682	-1010.10413	
5271	52.700	-681.84387	-25.59758	-580.71533	732.81738	-13.78001	-496.36832	-753.35522	26.66043	636.79547	816.53906	33.88314	640.34875	27.44199	586.14844	-1010.05963	
5272	52.710	-682.20514	-25.60455	-580.74347	732.73230	-13.94680	-496.21671	-753.70575	26.65373	636.74567	817.04736	33.30857	640.34766	27.19348	586.41760	-1009.85742	
5273	52.720	-682.34985	-25.51412	-580.77087	732.47577	-13.64014	-496.27496	-753.89868	26.57514	636.77576	816.36047	33.92908	640.45868	27.00080	586.47864	-1009.74884	
5274	52.730	-682.50635	-25.45846	-580.75397	732.35651	-13.55804	-496.19159	-754.13501	26.48568	636.79980	816.19348	33.86635	640.57611	26.86045	586.53937	-1009.65930	
5275	52.740	-682.82208	-25.33115	-580.73944	732.17456	-13.54772	-496.22873	-754.31573	26.36294	636.84052	815.97992	33.79081	640.69269	26.65634	586.65240	-1009.51605	
5276	52.750	-683.08960	-25.25848	-580.70093	731.86993	-13.48281	-496.28470	-754.60950	26.16562	636.82941	815.79559	33.84668	640.76385	26.64730	586.72742	-1009.35437	
5277	52.760	-683.34174	-25.18035	-580.71222	731.67181	-13.54046	-496.25214	-754.78564	26.07220	636.82849	815.66431	33.85691	640.77515	26.31209	586.79626	-1009.37634	
5278	52.770	-683.47705	-25.16624	-580.67310	731.52283	-13.48138	-496.28629	-754.91785	26.01407	636.90826	815.53687	33.82579	640.76794	26.16817	586.83948	-1009.30695	
5279	52.780	-683.59296	-25.14843	-580.71033	731.38086	-13.48133	-496.29312	-755.05750	25.96543	636.94055	815.43579	33.83433	640.73145	25.85612	586.95728	-1009.29657	
5280	52.790	-683.66718	-25.14020	-580.72815	731.16766	-13.43574	-496.25504	-755.27039	26.03080	636.91309	815.23059	33.76205	640.62793	25.56184	587.07214	-1009.22565	
5281	52.800	-683.78796	-25.15572	-580.74750	731.07562	-13.42142	-496.22333	-755.49988	26.02370	636.91260	814.99237	33.73056	640.54639	25.40651	587.12567	-1009.16687	
5282	52.810	-683.99176	-25.15059	-580.76514	730.77338	-13.23515	-496.35114	-755.82355	26.02245	636.91650	814.48785	33.86524	640.73737	25.20929	587.15149	-1009.08807	
5283	52.820	-684.15326	-25.17984	-580.74951	730.44153	-13.25548	-496.38812	-756.07306	25.92678	636.90234	814.31927	33.86550	640.75549	25.04953	587.15875	-1009.12976	
5284	52.830	-684.42139	-25.12951	-580.74860	730.17816	-13.20731	-496.33337	-756.17279	26.05143	636.98199	814.01227	33.79119	640.75574	24.89816	587.25861	-1009.14905	
5285	52.840	-684.69189	-25.06656	-580.70227	730.03607	-13.19051	-496.19034	-756.45691	26.02747	636.93976	813.59711	33.54268	640.75330	24.77342	587.35278	-1009.10687	
5286	52.850	-684.96124	-25.08880	-580.66321	729.85486	-13.08953	-496.20035	-756.87061	25.87309	636.97992	813.42999	33.44869	640.75867	24.55789	587.34869	-1009.11609	
5287	52.860	-685.19678	-25.00281	-580.61877	729.79016	-13.10142	-496.16721	-756.91113	26.01380	636.99310	813.37708	33.44549	640.76691	24.33520	587.43292	-1009.16937	
5288	52.870	-685.40759	-25.01782	-580.63599	729.53546	-13.09117	-496.18439	-757.04877	25.94547	636.99670	813.30658	33.37194	640.76263	24.10938	587.52557	-1009.21747	
5289	52.880	-685.62646	-25.01701	-580.62866	729.37128	-13.33603	-496.06531	-757.29260	25.87382	636.97754	813.18884	33.40778	640.78491	23.93070	587.53943	-1009.23083	
5290	52.890	-685.95245	-24.92301	-580.57184	729.03973	-13.14871	-496.24942	-757.44550	25.86762	637.04852	812.86920	33.44059	640.82977	23.59907	587.56262	-1009.15094	
5291	52.900	-686.20258	-24.90978	-580.60004	728.76300	-13.12673	-496.26297	-757.51758	25.65539	637.25677	812.62836	33.45825	640.83746	23.29843	587.59088	-1009.08063	
5292	52.910	-686.47949	-24.89764	-580.57129	728.56140	-13.15342	-496.21109	-757.76672	25.59994	637.28406	812.34332	33.48334	640.87732	22.93526	587.65967	-1009.07074	
5293	52.920	-686.66284	-24.89276	-580.75763	728.23657	-13.20911	-496.26474	-757.98138	25.54336	637.22809	812.02771	33.49849	640.86066	22.79374	587.66211	-1009.12732	
5294	52.930	-686.90564	-24.94272	-580.60596	727.96594	-13.40023	-496.14218	-758.16272	25.55335	637.16193	811.70789	33.54926	640.84241	22.96117	587.58124	-1008.82928	
5295	52.940	-687.02716	-24.89516	-580.61713	727.77051	-13.43528	-496.09164	-758.10809	25.55478	637.22089	811.59100	33.42004	640.59021	22.92249	587.50781	-1008.75739	
5296	52.950	-687.14264	-24.85732	-580.75500	727.62811	-13.41652	-496.05057	-758.42889	25.33428	637.14282	811.45825	33.33426	640.57520	22.74832	587.54675	-1008.72876	
5297	52.960	-687.30865	-24.85214	-580.62280	727.46356	-13.35662	-496.11746	-758.94257	26.26944	636.86267	811.36975	33.31822	640.56213	22.52532	587.60675	-1008.68988	
5298	52.970	-687.55121	-24.82107	-580.59436	727.25232	-13.35135	-496.07700	-759.23468	26.34991	636.87543	811.19244	33.22970	640.48114	22.37151	587.60315	-1008.65265	
5299	52.980	-687.68835	-24.83267	-580.62256	727.06891	-13.32818	-496.07632	-759.46185	26.27205	636.87634	811.04944	33.21910	640.47394	22.14979	587.60437	-1008.80341	
5300	52.990	-687.89349	-24.79198	-580.62494	726.97638	-13.29469	-496.06302	-759.62213	26.13919	636.90546	810.68927	33.59860	640.80573	21.68368	587.60034	-1008.90814	
5301	53.000	-688.02350	-24.81056	-580.64819	726.89319	-13.34424	-496.01642	-759.77747	26.17490	636.90674	810.51392	33.56306	640.78180	21.27653	587.60797	-1009.08423	
5302	53.010	-688.23334	-24.84758	-580.63165	726.78766	-13.33837	-496.01212	-759.87817	26.17846	636.94989	810.35681	33.59540	640.79523	21.19433	587.59961	-1009.01843	
5303	53.020	-688.42798	-24.86090	-580.58691	726.72009	-13.35633	-496.04932	-760.04797	26.20000	636.94324	810.20288	33.54513	640.82916	21.10626	587.57147	-1008.99072	
5304	53.030	-688.55847	-24.90681	-580.61652	726.49030	-13.21987	-496.11206	-760.15399	26.11454	636.96655	810.10382	33.55816	640.82062	20.99005	587.51715	-1008.98358	
